<?xml version="1.0" encoding="utf-8"?>
<!-- Generator: Adobe Illustrator 15.0.2, SVG Export Plug-In . SVG Version: 6.00 Build 0)  -->
<!DOCTYPE svg PUBLIC "-//W3C//DTD SVG 1.0//EN" "http://www.w3.org/TR/2001/REC-SVG-20010904/DTD/svg10.dtd">
<svg version="1.0" id="Layer_1" xmlns="http://www.w3.org/2000/svg" xmlns:xlink="http://www.w3.org/1999/xlink" x="0px" y="0px"
	 width="364.285px" height="223.809px" viewBox="0 0 364.285 223.809" enable-background="new 0 0 364.285 223.809"
	 xml:space="preserve">
<path fill="#FFFFFF" d="M278.425,64.449c-4.149,0-8.227,0.277-12.211,0.806c-7.486-32.711-40.306-57.346-79.665-57.346
	c-41.717,0-76.073,27.676-80.722,63.309c-5.314-0.962-10.818-1.469-16.457-1.469c-44.886,0-81.274,32.038-81.274,71.558
	c0,39.52,36.389,71.558,81.274,71.558c16.627,0,32.08-4.403,44.956-11.946c13.863,9.684,31.385,15.48,50.455,15.48
	c20.671,0,39.526-6.805,53.868-17.994c11.761,5.823,25.322,9.16,39.775,9.16c44.888,0,81.276-32.037,81.276-71.559
	C359.701,96.486,323.312,64.449,278.425,64.449z"/>
</svg>
