<?xml version="1.0" encoding="utf-8"?>
<!-- Generator: Adobe Illustrator 15.0.2, SVG Export Plug-In . SVG Version: 6.00 Build 0)  -->
<!DOCTYPE svg PUBLIC "-//W3C//DTD SVG 1.0//EN" "http://www.w3.org/TR/2001/REC-SVG-20010904/DTD/svg10.dtd">
<svg version="1.0" id="Layer_1" xmlns="http://www.w3.org/2000/svg" xmlns:xlink="http://www.w3.org/1999/xlink" x="0px" y="0px"
	 width="1908.19px" height="556.2px" viewBox="0 0 1908.19 556.2" enable-background="new 0 0 1908.19 556.2" xml:space="preserve">
<symbol  id="Grass_1" viewBox="-14.452 -22.034 28.904 44.068">
	<g>
		<g>
			<path fill="#63B442" d="M-0.963-18.702c0,0,4.742,15.564-2.099,40.736C9.278-0.305,1.45-13.917-0.963-18.702z"/>
			<path fill="#00A045" d="M-3.32-15.591c0,0,1.334,11.636-11.132,20.479C-3.683-6.546-5.486-16.092-4.136-22.034L-3.32-15.591z"/>
			<path fill="#008237" d="M5.265-17.786c0,0-2.417,11.582,5.65,16.967C9.265-4.786,6.765-10.204,5.265-17.786z"/>
			<path fill="#007135" d="M7.676-18.071c0,0-0.155,7.889,4.923,9.729C13.614-7.521,11.117-12.985,7.676-18.071z"/>
			<path fill="#008237" d="M-3.735-6.955c0,0,3.833,7.919-7.065,21.659C-8.07,8.64-4.819,0.798-3.735-6.955z"/>
		</g>
		<path fill="#00A045" d="M5.171-3.722c0,0,0.531,19.357,9.281,22.275C9.413,10.333,8.088,5.825,5.171-3.722z"/>
	</g>
</symbol>
<path fill="#32A649" d="M0.419,90.077c0,0-7.5,0,34.498,6s104.995,13.499,110.995,13.499s17.999,1.5,17.999,1.5
	s9-20.999,19.499-14.999s3,8.999,9,16.499s16.5,7.5,22.499,7.5s28.499-3.001,40.498,5.999s97.495,15,97.495,15s4.5-17.999,10.5-4.5
	s32.998,11.999,32.998,11.999s3-17.999,15-13.499s28.499,6,28.499,6s6-14.999,12-3s15,20.999,28.499,14.999
	s55.497-38.998,62.997-35.998s29.999,4.5,35.999,1.5s20.999,22.499,29.999,37.498s4.5,9,16.499,3s28.499-28.499,41.998-23.999
	s13.499,4.5,13.499,4.5s3-15,17.999-9s19.499,11.999,19.499,11.999s-13.499-1.5,15,0s43.498,3,55.497,3s41.998-2.999,40.498-8.999
	s-1.5-10.499,6-13.499s6-18,13.5-18s17.999,18,17.999,18v14.999l29.999-1.5c0,0-1.5-20.999,4.5-19.499s25.498,14.999,32.998,17.999
	s26.999,0,26.999,0s-7.5-13.499-3-19.499s4.5-7.501,6-12s17.999,9,17.999,9v26.999c0,0,32.999,7.499,49.498,8.999
	s46.498,4.499,59.997-3s17.999-5.998,41.998-4.499s35.998-13.5,55.497-13.5s37.498,3.001,38.998-5.999s14.999-19.5,19.499-15
	s7.5,20.999,7.5,20.999s3,3,14.999,3s35.998,3,35.998,3s-4.499-22.499,6-16.499s14.998,18,25.498,22.499s20.999,8.999,28.499,5.999
	s12-13.5,23.999-17.999s6,5.999,17.999,17.999s37.498,7.499,38.998,1.5s4.499-34.498,13.499-19.499s18,20.999,26.999,19.499
	s20.998,1.5,29.998,1.5s-11.999-31.499,9-19.499s25.498,28.499,32.998,23.999s16.499-13.5,20.999-7.5s17.999,12.001,22.499-4.499
	s7.5-25.5,25.499-13.5s7.499,25.499,7.499,25.499s16.499-3,37.498-4.5s47.997,1.5,56.997,1.5s19.499-25.498,23.999-28.498
	s10.499,26.998,20.999,29.998s13.499,1.499,20.999-6s13.5-11.999,23.999-8.999s17.998,14.999,25.498,11.999s-2.999-25.498,12-14.999
	s28.498,13.499,28.498,13.499s6-13.499,12-13.499s10.499,23.999,10.499,23.999L1904.277,427h-1900L0.419,90.077z"/>
<g>
	
		<use xlink:href="#Grass_1"  width="28.904" height="44.068" x="-14.452" y="-22.034" transform="matrix(1 0 0 -1 110.5322 216.0234)" overflow="visible"/>
	
		<use xlink:href="#Grass_1"  width="28.904" height="44.068" x="-14.452" y="-22.034" transform="matrix(1 0 0 -1 136.7471 218.2627)" overflow="visible"/>
	
		<use xlink:href="#Grass_1"  width="28.904" height="44.068" x="-14.452" y="-22.034" transform="matrix(1 0 0 -1 283.248 275.8867)" overflow="visible"/>
	
		<use xlink:href="#Grass_1"  width="28.904" height="44.068" x="-14.452" y="-22.034" transform="matrix(1 0 0 -1 321.2866 292.4209)" overflow="visible"/>
	
		<use xlink:href="#Grass_1"  width="28.904" height="44.068" x="-14.452" y="-22.034" transform="matrix(1 0 0 -1 400.1108 293.8271)" overflow="visible"/>
	
		<use xlink:href="#Grass_1"  width="28.904" height="44.068" x="-14.452" y="-22.034" transform="matrix(1 0 0 -1 382.5229 178.8193)" overflow="visible"/>
	
		<use xlink:href="#Grass_1"  width="28.904" height="44.068" x="-14.452" y="-22.034" transform="matrix(1 0 0 -1 410.2939 160.0537)" overflow="visible"/>
	
		<use xlink:href="#Grass_1"  width="28.904" height="44.068" x="-14.452" y="-22.034" transform="matrix(1 0 0 -1 837.8384 221.6401)" overflow="visible"/>
	
		<use xlink:href="#Grass_1"  width="28.904" height="44.068" x="-14.452" y="-22.034" transform="matrix(1 0 0 -1 898.5127 233.5679)" overflow="visible"/>
	
		<use xlink:href="#Grass_1"  width="28.904" height="44.068" x="-14.452" y="-22.034" transform="matrix(1 0 0 -1 963.6147 264.1191)" overflow="visible"/>
	
		<use xlink:href="#Grass_1"  width="28.904" height="44.068" x="-14.452" y="-22.034" transform="matrix(1 0 0 -1 998.8262 275.9067)" overflow="visible"/>
	
		<use xlink:href="#Grass_1"  width="28.904" height="44.068" x="-14.452" y="-22.034" transform="matrix(1 0 0 -1 1029.1631 271.9038)" overflow="visible"/>
	
		<use xlink:href="#Grass_1"  width="28.904" height="44.068" x="-14.452" y="-22.034" transform="matrix(1 0 0 -1 1158.9697 294.4893)" overflow="visible"/>
	
		<use xlink:href="#Grass_1"  width="28.904" height="44.068" x="-14.452" y="-22.034" transform="matrix(1 0 0 -1 1412.7549 294.6826)" overflow="visible"/>
	
		<use xlink:href="#Grass_1"  width="28.904" height="44.068" x="-14.452" y="-22.034" transform="matrix(1 0 0 -1 1469.2256 201.6416)" overflow="visible"/>
	
		<use xlink:href="#Grass_1"  width="28.904" height="44.068" x="-14.452" y="-22.034" transform="matrix(1 0 0 -1 1449.8242 180.7134)" overflow="visible"/>
	
		<use xlink:href="#Grass_1"  width="28.904" height="44.068" x="-14.452" y="-22.034" transform="matrix(1 0 0 -1 1366.4639 162.4702)" overflow="visible"/>
	
		<use xlink:href="#Grass_1"  width="28.904" height="44.068" x="-14.452" y="-22.034" transform="matrix(1 0 0 -1 917.77 283.6123)" overflow="visible"/>
	
		<use xlink:href="#Grass_1"  width="28.904" height="44.068" x="-14.452" y="-22.034" transform="matrix(1 0 0 -1 834.585 291.9629)" overflow="visible"/>
	
		<use xlink:href="#Grass_1"  width="28.904" height="44.068" x="-14.452" y="-22.034" transform="matrix(1 0 0 -1 697.6177 181.3511)" overflow="visible"/>
	
		<use xlink:href="#Grass_1"  width="28.904" height="44.068" x="-14.452" y="-22.034" transform="matrix(1 0 0 -1 699.2612 153.2314)" overflow="visible"/>
	
		<use xlink:href="#Grass_1"  width="28.904" height="44.068" x="-14.452" y="-22.034" transform="matrix(1 0 0 -1 595.0308 286.5078)" overflow="visible"/>
	
		<use xlink:href="#Grass_1"  width="28.904" height="44.068" x="-14.452" y="-22.034" transform="matrix(1 0 0 -1 536.2515 289.6885)" overflow="visible"/>
	
		<use xlink:href="#Grass_1"  width="28.904" height="44.068" x="-14.452" y="-22.034" transform="matrix(1 0 0 -1 522.0894 157.0884)" overflow="visible"/>
	
		<use xlink:href="#Grass_1"  width="28.904" height="44.068" x="-14.452" y="-22.034" transform="matrix(1 0 0 -1 557.5273 134.311)" overflow="visible"/>
	
		<use xlink:href="#Grass_1"  width="28.904" height="44.068" x="-14.452" y="-22.034" transform="matrix(1 0 0 -1 978.8682 242.019)" overflow="visible"/>
	
		<use xlink:href="#Grass_1"  width="28.904" height="44.068" x="-14.452" y="-22.034" transform="matrix(1 0 0 -1 1030.7549 297.0684)" overflow="visible"/>
	
		<use xlink:href="#Grass_1"  width="28.904" height="44.068" x="-14.452" y="-22.034" transform="matrix(1 0 0 -1 1146.3955 341.1074)" overflow="visible"/>
	
		<use xlink:href="#Grass_1"  width="28.904" height="44.068" x="-14.452" y="-22.034" transform="matrix(1 0 0 -1 1365.1357 359.1943)" overflow="visible"/>
	
		<use xlink:href="#Grass_1"  width="28.904" height="44.068" x="-14.452" y="-22.034" transform="matrix(1 0 0 -1 1444.5449 385.8789)" overflow="visible"/>
	
		<use xlink:href="#Grass_1"  width="28.904" height="44.068" x="-14.452" y="-22.034" transform="matrix(1 0 0 -1 1566.9775 367.2656)" overflow="visible"/>
	
		<use xlink:href="#Grass_1"  width="28.904" height="44.068" x="-14.452" y="-22.034" transform="matrix(1 0 0 -1 1706.1768 320.8525)" overflow="visible"/>
	
		<use xlink:href="#Grass_1"  width="28.904" height="44.068" x="-14.452" y="-22.034" transform="matrix(1 0 0 -1 1758.0664 215.9893)" overflow="visible"/>
	
		<use xlink:href="#Grass_1"  width="28.904" height="44.068" x="-14.452" y="-22.034" transform="matrix(1 0 0 -1 1655.7275 215.9375)" overflow="visible"/>
	
		<use xlink:href="#Grass_1"  width="28.904" height="44.068" x="-14.452" y="-22.034" transform="matrix(1 0 0 -1 1565.8252 222.6694)" overflow="visible"/>
	
		<use xlink:href="#Grass_1"  width="28.904" height="44.068" x="-14.452" y="-22.034" transform="matrix(1 0 0 -1 1373.9053 239.707)" overflow="visible"/>
	
		<use xlink:href="#Grass_1"  width="28.904" height="44.068" x="-14.452" y="-22.034" transform="matrix(1 0 0 -1 1321.3945 199.9463)" overflow="visible"/>
	
		<use xlink:href="#Grass_1"  width="28.904" height="44.068" x="-14.452" y="-22.034" transform="matrix(1 0 0 -1 1271.3789 177.1538)" overflow="visible"/>
	
		<use xlink:href="#Grass_1"  width="28.904" height="44.068" x="-14.452" y="-22.034" transform="matrix(1 0 0 -1 1175.7373 190.1265)" overflow="visible"/>
	
		<use xlink:href="#Grass_1"  width="28.904" height="44.068" x="-14.452" y="-22.034" transform="matrix(1 0 0 -1 1043.4072 216.9336)" overflow="visible"/>
	
		<use xlink:href="#Grass_1"  width="28.904" height="44.068" x="-14.452" y="-22.034" transform="matrix(1 0 0 -1 656.2246 381.9805)" overflow="visible"/>
	
		<use xlink:href="#Grass_1"  width="28.904" height="44.068" x="-14.452" y="-22.034" transform="matrix(1 0 0 -1 603.8906 387.2861)" overflow="visible"/>
	
		<use xlink:href="#Grass_1"  width="28.904" height="44.068" x="-14.452" y="-22.034" transform="matrix(1 0 0 -1 463.7207 362.8438)" overflow="visible"/>
	
		<use xlink:href="#Grass_1"  width="28.904" height="44.068" x="-14.452" y="-22.034" transform="matrix(1 0 0 -1 276.3037 389.7383)" overflow="visible"/>
	
		<use xlink:href="#Grass_1"  width="28.904" height="44.068" x="-14.452" y="-22.034" transform="matrix(1 0 0 -1 187.0044 348.9766)" overflow="visible"/>
	
		<use xlink:href="#Grass_1"  width="28.904" height="44.068" x="-14.452" y="-22.034" transform="matrix(1 0 0 -1 129.7012 262.2837)" overflow="visible"/>
	
		<use xlink:href="#Grass_1"  width="28.904" height="44.068" x="-14.452" y="-22.034" transform="matrix(1 0 0 -1 110.1714 158.6211)" overflow="visible"/>
	
		<use xlink:href="#Grass_1"  width="28.904" height="44.068" x="-14.452" y="-22.034" transform="matrix(1 0 0 -1 86.4517 162.8999)" overflow="visible"/>
	
		<use xlink:href="#Grass_1"  width="28.904" height="44.068" x="-14.452" y="-22.034" transform="matrix(1 0 0 -1 41.4204 138.2334)" overflow="visible"/>
	
		<use xlink:href="#Grass_1"  width="28.904" height="44.068" x="-14.452" y="-22.034" transform="matrix(1 0 0 -1 18.5063 140.5273)" overflow="visible"/>
	
		<use xlink:href="#Grass_1"  width="28.904" height="44.068" x="-14.452" y="-22.034" transform="matrix(1 0 0 -1 49.249 272.8677)" overflow="visible"/>
	
		<use xlink:href="#Grass_1"  width="28.904" height="44.068" x="-14.452" y="-22.034" transform="matrix(1 0 0 -1 49.3091 328.5781)" overflow="visible"/>
	
		<use xlink:href="#Grass_1"  width="28.904" height="44.068" x="-14.452" y="-22.034" transform="matrix(1 0 0 -1 169.6187 129.8447)" overflow="visible"/>
	
		<use xlink:href="#Grass_1"  width="28.904" height="44.068" x="-14.452" y="-22.034" transform="matrix(1 0 0 -1 270.6641 134.7505)" overflow="visible"/>
	
		<use xlink:href="#Grass_1"  width="28.904" height="44.068" x="-14.452" y="-22.034" transform="matrix(1 0 0 -1 295.9146 166.1494)" overflow="visible"/>
	
		<use xlink:href="#Grass_1"  width="28.904" height="44.068" x="-14.452" y="-22.034" transform="matrix(1 0 0 -1 320.5947 228.9512)" overflow="visible"/>
	
		<use xlink:href="#Grass_1"  width="28.904" height="44.068" x="-14.452" y="-22.034" transform="matrix(1 0 0 -1 354.2749 276.418)" overflow="visible"/>
	
		<use xlink:href="#Grass_1"  width="28.904" height="44.068" x="-14.452" y="-22.034" transform="matrix(1 0 0 -1 373.1719 360.9102)" overflow="visible"/>
	
		<use xlink:href="#Grass_1"  width="28.904" height="44.068" x="-14.452" y="-22.034" transform="matrix(1 0 0 -1 414.6885 390.0811)" overflow="visible"/>
	
		<use xlink:href="#Grass_1"  width="28.904" height="44.068" x="-14.452" y="-22.034" transform="matrix(1 0 0 -1 561.2612 201.4766)" overflow="visible"/>
	
		<use xlink:href="#Grass_1"  width="28.904" height="44.068" x="-14.452" y="-22.034" transform="matrix(1 0 0 -1 613.8745 171.0327)" overflow="visible"/>
	
		<use xlink:href="#Grass_1"  width="28.904" height="44.068" x="-14.452" y="-22.034" transform="matrix(1 0 0 -1 680.2017 226.0093)" overflow="visible"/>
	
		<use xlink:href="#Grass_1"  width="28.904" height="44.068" x="-14.452" y="-22.034" transform="matrix(1 0 0 -1 778.4561 357.9688)" overflow="visible"/>
	
		<use xlink:href="#Grass_1"  width="28.904" height="44.068" x="-14.452" y="-22.034" transform="matrix(1 0 0 -1 865.7646 393.7051)" overflow="visible"/>
	
		<use xlink:href="#Grass_1"  width="28.904" height="44.068" x="-14.452" y="-22.034" transform="matrix(1 0 0 -1 1033.9336 367.0605)" overflow="visible"/>
	
		<use xlink:href="#Grass_1"  width="28.904" height="44.068" x="-14.452" y="-22.034" transform="matrix(1 0 0 -1 1122.3984 318.2549)" overflow="visible"/>
	
		<use xlink:href="#Grass_1"  width="28.904" height="44.068" x="-14.452" y="-22.034" transform="matrix(1 0 0 -1 1187.8672 312.793)" overflow="visible"/>
	
		<use xlink:href="#Grass_1"  width="28.904" height="44.068" x="-14.452" y="-22.034" transform="matrix(1 0 0 -1 1191.1357 339.2188)" overflow="visible"/>
	
		<use xlink:href="#Grass_1"  width="28.904" height="44.068" x="-14.452" y="-22.034" transform="matrix(1 0 0 -1 1188.2588 411.2031)" overflow="visible"/>
	
		<use xlink:href="#Grass_1"  width="28.904" height="44.068" x="-14.452" y="-22.034" transform="matrix(1 0 0 -1 1287.4785 381.1426)" overflow="visible"/>
	
		<use xlink:href="#Grass_1"  width="28.904" height="44.068" x="-14.452" y="-22.034" transform="matrix(1 0 0 -1 1261.3818 236.9312)" overflow="visible"/>
	
		<use xlink:href="#Grass_1"  width="28.904" height="44.068" x="-14.452" y="-22.034" transform="matrix(1 0 0 -1 1212.957 225.3315)" overflow="visible"/>
	
		<use xlink:href="#Grass_1"  width="28.904" height="44.068" x="-14.452" y="-22.034" transform="matrix(1 0 0 -1 1105.9307 206.4834)" overflow="visible"/>
	
		<use xlink:href="#Grass_1"  width="28.904" height="44.068" x="-14.452" y="-22.034" transform="matrix(1 0 0 -1 1028.2451 166.2456)" overflow="visible"/>
	
		<use xlink:href="#Grass_1"  width="28.904" height="44.068" x="-14.452" y="-22.034" transform="matrix(1 0 0 -1 953.2095 166.6484)" overflow="visible"/>
	
		<use xlink:href="#Grass_1"  width="28.904" height="44.068" x="-14.452" y="-22.034" transform="matrix(1 0 0 -1 902.9341 177.1597)" overflow="visible"/>
	
		<use xlink:href="#Grass_1"  width="28.904" height="44.068" x="-14.452" y="-22.034" transform="matrix(1 0 0 -1 845.6914 185.5396)" overflow="visible"/>
	
		<use xlink:href="#Grass_1"  width="28.904" height="44.068" x="-14.452" y="-22.034" transform="matrix(1 0 0 -1 849.4878 143.3574)" overflow="visible"/>
	
		<use xlink:href="#Grass_1"  width="28.904" height="44.068" x="-14.452" y="-22.034" transform="matrix(1 0 0 -1 894.7871 126.6353)" overflow="visible"/>
	
		<use xlink:href="#Grass_1"  width="28.904" height="44.068" x="-14.452" y="-22.034" transform="matrix(1 0 0 -1 1085.1172 160.1499)" overflow="visible"/>
	
		<use xlink:href="#Grass_1"  width="28.904" height="44.068" x="-14.452" y="-22.034" transform="matrix(1 0 0 -1 1187.0918 220.4966)" overflow="visible"/>
	
		<use xlink:href="#Grass_1"  width="28.904" height="44.068" x="-14.452" y="-22.034" transform="matrix(1 0 0 -1 1316.1914 267.0884)" overflow="visible"/>
	
		<use xlink:href="#Grass_1"  width="28.904" height="44.068" x="-14.452" y="-22.034" transform="matrix(1 0 0 -1 1371.249 287.5146)" overflow="visible"/>
	
		<use xlink:href="#Grass_1"  width="28.904" height="44.068" x="-14.452" y="-22.034" transform="matrix(1 0 0 -1 1474.4287 353.5859)" overflow="visible"/>
	
		<use xlink:href="#Grass_1"  width="28.904" height="44.068" x="-14.452" y="-22.034" transform="matrix(1 0 0 -1 1607.8232 347.9424)" overflow="visible"/>
	
		<use xlink:href="#Grass_1"  width="28.904" height="44.068" x="-14.452" y="-22.034" transform="matrix(1 0 0 -1 1682.7061 283.9053)" overflow="visible"/>
	
		<use xlink:href="#Grass_1"  width="28.904" height="44.068" x="-14.452" y="-22.034" transform="matrix(1 0 0 -1 1731.9834 283.4766)" overflow="visible"/>
	
		<use xlink:href="#Grass_1"  width="28.904" height="44.068" x="-14.452" y="-22.034" transform="matrix(1 0 0 -1 1782.2695 185.3711)" overflow="visible"/>
	
		<use xlink:href="#Grass_1"  width="28.904" height="44.068" x="-14.452" y="-22.034" transform="matrix(1 0 0 -1 1856.9883 176.3379)" overflow="visible"/>
	
		<use xlink:href="#Grass_1"  width="28.904" height="44.068" x="-14.452" y="-22.034" transform="matrix(1 0 0 -1 1898.3281 310.8711)" overflow="visible"/>
	
		<use xlink:href="#Grass_1"  width="28.904" height="44.068" x="-14.452" y="-22.034" transform="matrix(1 0 0 -1 1916.6104 347.4824)" overflow="visible"/>
	
		<use xlink:href="#Grass_1"  width="28.904" height="44.068" x="-14.452" y="-22.034" transform="matrix(1 0 0 -1 1942.5039 368.6855)" overflow="visible"/>
	
		<use xlink:href="#Grass_1"  width="28.904" height="44.068" x="-14.452" y="-22.034" transform="matrix(1 0 0 -1 1830.9473 393.2393)" overflow="visible"/>
	
		<use xlink:href="#Grass_1"  width="28.904" height="44.068" x="-14.452" y="-22.034" transform="matrix(1 0 0 -1 1811.3398 408.4639)" overflow="visible"/>
	
		<use xlink:href="#Grass_1"  width="28.904" height="44.068" x="-14.452" y="-22.034" transform="matrix(1 0 0 -1 1788.6387 394.1055)" overflow="visible"/>
	
		<use xlink:href="#Grass_1"  width="28.904" height="44.068" x="-14.452" y="-22.034" transform="matrix(1 0 0 -1 1600.208 421.9121)" overflow="visible"/>
	
		<use xlink:href="#Grass_1"  width="28.904" height="44.068" x="-14.452" y="-22.034" transform="matrix(1 0 0 -1 1536.3477 413.333)" overflow="visible"/>
	
		<use xlink:href="#Grass_1"  width="28.904" height="44.068" x="-14.452" y="-22.034" transform="matrix(1 0 0 -1 1318.0625 382.8525)" overflow="visible"/>
	
		<use xlink:href="#Grass_1"  width="28.904" height="44.068" x="-14.452" y="-22.034" transform="matrix(1 0 0 -1 1206.6748 386.4688)" overflow="visible"/>
	
		<use xlink:href="#Grass_1"  width="28.904" height="44.068" x="-14.452" y="-22.034" transform="matrix(1 0 0 -1 857.6719 241.272)" overflow="visible"/>
	
		<use xlink:href="#Grass_1"  width="28.904" height="44.068" x="-14.452" y="-22.034" transform="matrix(1 0 0 -1 800.457 239.2993)" overflow="visible"/>
	
		<use xlink:href="#Grass_1"  width="28.904" height="44.068" x="-14.452" y="-22.034" transform="matrix(1 0 0 -1 548.2202 320.332)" overflow="visible"/>
	
		<use xlink:href="#Grass_1"  width="28.904" height="44.068" x="-14.452" y="-22.034" transform="matrix(1 0 0 -1 514.1465 321.8105)" overflow="visible"/>
	
		<use xlink:href="#Grass_1"  width="28.904" height="44.068" x="-14.452" y="-22.034" transform="matrix(1 0 0 -1 399.186 205.7441)" overflow="visible"/>
	
		<use xlink:href="#Grass_1"  width="28.904" height="44.068" x="-14.452" y="-22.034" transform="matrix(1 0 0 -1 459.8433 188.2363)" overflow="visible"/>
	
		<use xlink:href="#Grass_1"  width="28.904" height="44.068" x="-14.452" y="-22.034" transform="matrix(1 0 0 -1 478.1118 204.9609)" overflow="visible"/>
	
		<use xlink:href="#Grass_1"  width="28.904" height="44.068" x="-14.452" y="-22.034" transform="matrix(1 0 0 -1 493.9028 261.9487)" overflow="visible"/>
	
		<use xlink:href="#Grass_1"  width="28.904" height="44.068" x="-14.452" y="-22.034" transform="matrix(1 0 0 -1 713.21 289.127)" overflow="visible"/>
	
		<use xlink:href="#Grass_1"  width="28.904" height="44.068" x="-14.452" y="-22.034" transform="matrix(1 0 0 -1 765.0083 247.6504)" overflow="visible"/>
	
		<use xlink:href="#Grass_1"  width="28.904" height="44.068" x="-14.452" y="-22.034" transform="matrix(1 0 0 -1 678.3604 254.3682)" overflow="visible"/>
	
		<use xlink:href="#Grass_1"  width="28.904" height="44.068" x="-14.452" y="-22.034" transform="matrix(1 0 0 -1 651.6606 312.3418)" overflow="visible"/>
	
		<use xlink:href="#Grass_1"  width="28.904" height="44.068" x="-14.452" y="-22.034" transform="matrix(1 0 0 -1 600.7163 361.9375)" overflow="visible"/>
	
		<use xlink:href="#Grass_1"  width="28.904" height="44.068" x="-14.452" y="-22.034" transform="matrix(1 0 0 -1 534.3301 372.3125)" overflow="visible"/>
	
		<use xlink:href="#Grass_1"  width="28.904" height="44.068" x="-14.452" y="-22.034" transform="matrix(1 0 0 -1 246.7036 413.6602)" overflow="visible"/>
	
		<use xlink:href="#Grass_1"  width="28.904" height="44.068" x="-14.452" y="-22.034" transform="matrix(1 0 0 -1 214.2178 396.4551)" overflow="visible"/>
	
		<use xlink:href="#Grass_1"  width="28.904" height="44.068" x="-14.452" y="-22.034" transform="matrix(1 0 0 -1 170.4326 253.6992)" overflow="visible"/>
	
		<use xlink:href="#Grass_1"  width="28.904" height="44.068" x="-14.452" y="-22.034" transform="matrix(1 0 0 -1 174.8853 161.4072)" overflow="visible"/>
	
		<use xlink:href="#Grass_1"  width="28.904" height="44.068" x="-14.452" y="-22.034" transform="matrix(1 0 0 -1 202.6255 221.0708)" overflow="visible"/>
	
		<use xlink:href="#Grass_1"  width="28.904" height="44.068" x="-14.452" y="-22.034" transform="matrix(1 0 0 -1 203.1885 278.8193)" overflow="visible"/>
	
		<use xlink:href="#Grass_1"  width="28.904" height="44.068" x="-14.452" y="-22.034" transform="matrix(1 0 0 -1 198.0747 309.1621)" overflow="visible"/>
	
		<use xlink:href="#Grass_1"  width="28.904" height="44.068" x="-14.452" y="-22.034" transform="matrix(1 0 0 -1 87.7446 382.7676)" overflow="visible"/>
	
		<use xlink:href="#Grass_1"  width="28.904" height="44.068" x="-14.452" y="-22.034" transform="matrix(1 0 0 -1 55.8149 392.6484)" overflow="visible"/>
	
		<use xlink:href="#Grass_1"  width="28.904" height="44.068" x="-14.452" y="-22.034" transform="matrix(1 0 0 -1 22.313 290.0752)" overflow="visible"/>
	
		<use xlink:href="#Grass_1"  width="28.904" height="44.068" x="-14.452" y="-22.034" transform="matrix(1 0 0 -1 32.3291 230.0015)" overflow="visible"/>
	
		<use xlink:href="#Grass_1"  width="28.904" height="44.068" x="-14.452" y="-22.034" transform="matrix(1 0 0 -1 27.2168 169.4229)" overflow="visible"/>
	
		<use xlink:href="#Grass_1"  width="28.904" height="44.068" x="-14.452" y="-22.034" transform="matrix(1 0 0 -1 333.2539 392.4404)" overflow="visible"/>
	
		<use xlink:href="#Grass_1"  width="28.904" height="44.068" x="-14.452" y="-22.034" transform="matrix(1 0 0 -1 402.7446 441.9209)" overflow="visible"/>
	
		<use xlink:href="#Grass_1"  width="28.904" height="44.068" x="-14.452" y="-22.034" transform="matrix(1 0 0 -1 740.4155 425.3223)" overflow="visible"/>
	
		<use xlink:href="#Grass_1"  width="28.904" height="44.068" x="-14.452" y="-22.034" transform="matrix(1 0 0 -1 827.9863 418.4746)" overflow="visible"/>
	
		<use xlink:href="#Grass_1"  width="28.904" height="44.068" x="-14.452" y="-22.034" transform="matrix(1 0 0 -1 920.5259 390.6299)" overflow="visible"/>
	
		<use xlink:href="#Grass_1"  width="28.904" height="44.068" x="-14.452" y="-22.034" transform="matrix(1 0 0 -1 960.332 410.5146)" overflow="visible"/>
	
		<use xlink:href="#Grass_1"  width="28.904" height="44.068" x="-14.452" y="-22.034" transform="matrix(1 0 0 -1 1042.0176 403.4238)" overflow="visible"/>
	
		<use xlink:href="#Grass_1"  width="28.904" height="44.068" x="-14.452" y="-22.034" transform="matrix(1 0 0 -1 1243.4795 333.7676)" overflow="visible"/>
	
		<use xlink:href="#Grass_1"  width="28.904" height="44.068" x="-14.452" y="-22.034" transform="matrix(1 0 0 -1 1261.8887 302.2002)" overflow="visible"/>
	
		<use xlink:href="#Grass_1"  width="28.904" height="44.068" x="-14.452" y="-22.034" transform="matrix(1 0 0 -1 1547.4053 262.2036)" overflow="visible"/>
	
		<use xlink:href="#Grass_1"  width="28.904" height="44.068" x="-14.452" y="-22.034" transform="matrix(1 0 0 -1 1646.6934 294.3096)" overflow="visible"/>
	
		<use xlink:href="#Grass_1"  width="28.904" height="44.068" x="-14.452" y="-22.034" transform="matrix(1 0 0 -1 1729.7861 378.1514)" overflow="visible"/>
	
		<use xlink:href="#Grass_1"  width="28.904" height="44.068" x="-14.452" y="-22.034" transform="matrix(1 0 0 -1 1744.4707 410.5742)" overflow="visible"/>
	
		<use xlink:href="#Grass_1"  width="28.904" height="44.068" x="-14.452" y="-22.034" transform="matrix(1 0 0 -1 1863.1035 295.1084)" overflow="visible"/>
	
		<use xlink:href="#Grass_1"  width="28.904" height="44.068" x="-14.452" y="-22.034" transform="matrix(1 0 0 -1 1871.418 272.064)" overflow="visible"/>
	
		<use xlink:href="#Grass_1"  width="28.904" height="44.068" x="-14.452" y="-22.034" transform="matrix(1 0 0 -1 1885.0684 247.3882)" overflow="visible"/>
	
		<use xlink:href="#Grass_1"  width="28.904" height="44.068" x="-14.452" y="-22.034" transform="matrix(1 0 0 -1 1833.4082 269.4302)" overflow="visible"/>
	
		<use xlink:href="#Grass_1"  width="28.904" height="44.068" x="-14.452" y="-22.034" transform="matrix(1 0 0 -1 1788.6455 283.8848)" overflow="visible"/>
	
		<use xlink:href="#Grass_1"  width="28.904" height="44.068" x="-14.452" y="-22.034" transform="matrix(1 0 0 -1 1561.2275 170.8257)" overflow="visible"/>
	
		<use xlink:href="#Grass_1"  width="28.904" height="44.068" x="-14.452" y="-22.034" transform="matrix(1 0 0 -1 1435.6504 334.8096)" overflow="visible"/>
	
		<use xlink:href="#Grass_1"  width="28.904" height="44.068" x="-14.452" y="-22.034" transform="matrix(1 0 0 -1 1536.8252 312.8828)" overflow="visible"/>
	
		<use xlink:href="#Grass_1"  width="28.904" height="44.068" x="-14.452" y="-22.034" transform="matrix(1 0 0 -1 1522.5537 298.6699)" overflow="visible"/>
</g>
</svg>
