<?xml version="1.0" encoding="utf-8"?>
<!-- Generator: Adobe Illustrator 15.0.2, SVG Export Plug-In . SVG Version: 6.00 Build 0)  -->
<!DOCTYPE svg PUBLIC "-//W3C//DTD SVG 1.0//EN" "http://www.w3.org/TR/2001/REC-SVG-20010904/DTD/svg10.dtd">
<svg version="1.0" xmlns="http://www.w3.org/2000/svg" xmlns:xlink="http://www.w3.org/1999/xlink" x="0px" y="0px" width="1637px"
	 height="1099.688px" viewBox="0 0 1637 1099.688" enable-background="new 0 0 1637 1099.688" xml:space="preserve">
<g id="Layer_1_copy_3" display="none">
	<path display="inline" fill="#FFFFFF" stroke="#000000" d="M678.741,270.302c-47.235-47.236-128.277-46.87-163.007-44.213
		L420.5,130.854v-12.167h-12.167h-0.826H394.5v13.007l-0.161,9.768l-94.626,94.626c-34.729-2.657-115.771-3.022-163.007,44.213
		C75.394,341.615,94.28,459.907,94.28,459.907s118.292,18.886,179.605-42.426c47.235-47.236,46.87-128.277,44.213-163.007
		l76.402-76.402v93.088c-26.437,22.679-84,79.726-84,146.527c0,86.709,97,157,97,157s97-70.291,97-157
		c0-66.801-57.563-123.848-84-146.527V167.625l76.85,76.849c-2.657,34.73-3.022,115.771,44.213,163.007
		c61.312,61.312,179.605,42.426,179.605,42.426S740.054,331.615,678.741,270.302z"/>
	<path display="inline" fill="#FFFFFF" stroke="#000000" d="M-517.575-640.87v-152.473h-26v152.473
		c-26.437,22.679-84,79.726-84,146.527c0,86.709,97,157,97,157s97-70.291,97-157C-433.575-561.144-491.138-618.191-517.575-640.87z"
		/>
	<path display="inline" fill="#FFFFFF" stroke="#000000" d="M-619.977-657.556l107.814-107.814l-18.385-18.385l-107.814,107.814
		c-34.729-2.657-115.771-3.022-163.007,44.213c-61.312,61.312-42.426,179.605-42.426,179.605s118.292,18.886,179.605-42.426
		C-616.955-541.785-617.32-622.826-619.977-657.556z"/>
	<path display="inline" fill="#FFFFFF" stroke="#000000" d="M-440.725-667.556L-548.54-775.37l18.385-18.385l107.814,107.814
		c34.729-2.657,115.771-3.022,163.007,44.213c61.312,61.312,42.427,179.605,42.427,179.605s-118.293,18.886-179.605-42.426
		C-443.748-551.785-443.382-632.826-440.725-667.556z"/>
</g>
<g id="Layer_2">
	<path fill="#0E4C26" d="M1136.419,29.871c-38.903-35.373-102.607-32.056-129.813-28.669l-78.438-71.316l-0.455-9.566l-9.565,0.455
		l-0.649,0.031l-10.227,0.486l0.486,10.227l0.238,7.686l-70.861,77.936c-27.404-0.791-91.137,1.951-126.509,40.854
		c-45.915,50.498-26.644,142.798-26.644,142.798s93.711,10.427,139.625-40.07c35.373-38.904,32.057-102.608,28.67-129.815
		l57.214-62.926l3.479,73.19c-19.938,18.819-63.063,65.823-60.566,118.344c3.24,68.174,82.133,119.813,82.133,119.813
		s73.639-58.89,70.396-127.064c-2.497-52.521-49.888-95.223-71.521-112.065l-3.869-81.403l63.294,57.549
		c-0.791,27.405,1.951,91.136,40.855,126.509c50.497,45.915,142.797,26.644,142.797,26.644S1186.917,75.785,1136.419,29.871z"/>
	<path fill="#13763C" d="M398.346,20.87C359.442-14.503,295.738-11.187,268.532-7.8l-78.437-71.316l-0.455-9.566l-9.566,0.455
		l-0.649,0.031l-10.227,0.486l0.486,10.227l0.238,7.686L99.062,8.138C71.657,7.347,7.925,10.088-27.447,48.992
		C-73.362,99.49-54.091,191.79-54.091,191.79s93.712,10.427,139.626-40.07c35.373-38.904,32.056-102.608,28.669-129.815
		l57.214-62.926l3.479,73.19c-19.938,18.819-63.063,65.823-60.567,118.344c3.241,68.174,82.133,119.813,82.133,119.813
		s73.638-58.89,70.396-127.064c-2.497-52.521-49.888-95.223-71.521-112.065l-3.87-81.403l63.294,57.549
		c-0.791,27.405,1.951,91.136,40.855,126.509c50.497,45.915,142.797,26.644,142.797,26.644S448.844,66.784,398.346,20.87z"/>
	<path fill="#15AF4B" d="M580.19,27.955C541.286-7.418,477.582-4.102,450.375-0.715l-78.436-71.316l-0.455-9.566l-9.565,0.455
		l-0.65,0.031l-10.227,0.486l0.486,10.227l0.238,7.686l-70.861,77.935c-27.406-0.791-91.137,1.951-126.509,40.855
		c-45.915,50.498-26.644,142.798-26.644,142.798s93.712,10.427,139.626-40.07C302.751,119.9,299.435,56.196,296.048,28.99
		l57.214-62.926l3.479,73.19c-19.938,18.819-63.064,65.823-60.566,118.344c3.24,68.174,82.133,119.813,82.133,119.813
		s73.638-58.891,70.396-127.064c-2.497-52.521-49.888-95.223-71.521-112.065l-3.869-81.403l63.294,57.549
		c-0.791,27.405,1.951,91.136,40.855,126.509c50.497,45.915,142.797,26.644,142.797,26.644S630.688,73.869,580.19,27.955z"/>
	<path fill="#13763C" d="M1305.071,89.755c-27.805-44.628-90.006-58.779-117.106-62.927l-56.058-89.977l2.166-9.329l-9.329-2.167
		l-0.633-0.147l-9.974-2.316l-2.314,9.974l-1.863,7.46l-89.402,55.7c-26.154-8.221-88.226-22.934-132.854,4.871
		c-57.928,36.091-64.513,130.15-64.513,130.15s87.333,35.546,145.262-0.545c44.627-27.805,58.778-90.005,62.926-117.107
		l72.185-44.973l-16.576,71.373c-24.309,12.681-78.602,46.168-90.498,97.385c-15.441,66.481,46.413,137.647,46.413,137.647
		s86.889-36.619,102.329-103.1c11.896-51.217-22.08-105.207-38.31-127.302l18.437-79.383l45.236,72.607
		c-8.222,26.155-22.934,88.225,4.871,132.854c36.09,57.928,130.15,64.513,130.15,64.513S1341.161,147.683,1305.071,89.755z"/>
	<path fill="#4CB853" d="M915.355,70.237c-30.815-42.604-93.844-52.434-121.166-54.704l-62.128-85.897l1.518-9.456l-9.455-1.518
		l-0.643-0.103l-10.109-1.624l-1.622,10.109l-1.345,7.572L625.057-3.652c-26.659-6.398-89.597-16.796-132.201,14.019
		c-55.302,39.999-55.386,134.289-55.386,134.289s89.577,29.44,144.878-10.559c42.604-30.815,52.434-93.843,54.703-121.167
		l68.912-49.843l-11.618,72.346c-23.376,14.326-75.231,51.478-83.566,103.393c-10.821,67.387,55.792,134.12,55.792,134.12
		s84.158-42.522,94.979-109.91c8.335-51.916-29.281-103.434-46.997-124.359l12.921-80.464l50.134,69.315
		c-6.399,26.659-16.796,89.597,14.02,132.201c39.998,55.302,134.289,55.386,134.289,55.386S955.354,125.539,915.355,70.237z"/>
	<path fill="#13763C" d="M1860.126,89.755c-27.805-44.628-90.006-58.779-117.106-62.927l-56.058-89.977l2.166-9.329l-9.329-2.167
		l-0.633-0.147l-9.974-2.316l-2.314,9.974l-1.863,7.46l-89.402,55.7c-26.154-8.221-88.226-22.934-132.854,4.871
		c-57.928,36.091-64.513,130.15-64.513,130.15s87.333,35.546,145.262-0.545c44.627-27.805,58.778-90.005,62.926-117.107
		l72.185-44.973l-16.576,71.373c-24.309,12.681-78.602,46.168-90.498,97.385c-15.441,66.481,46.413,137.647,46.413,137.647
		s86.889-36.619,102.329-103.1c11.896-51.217-22.08-105.207-38.31-127.302l18.437-79.383l45.236,72.607
		c-8.222,26.155-22.934,88.225,4.871,132.854c36.09,57.928,130.15,64.513,130.15,64.513S1896.216,147.683,1860.126,89.755z"/>
	<path fill="#4CB853" d="M1653.429,79.238c-30.815-42.604-93.844-52.434-121.166-54.704l-62.128-85.897l1.518-9.456l-9.455-1.518
		l-0.643-0.103l-10.109-1.624l-1.622,10.109l-1.345,7.572L1363.13,5.349c-26.659-6.398-89.597-16.796-132.201,14.019
		c-55.302,39.999-55.386,134.289-55.386,134.289s89.577,29.44,144.878-10.559c42.604-30.815,52.434-93.843,54.703-121.167
		l68.912-49.843l-11.618,72.346c-23.376,14.326-75.231,51.478-83.566,103.393c-10.821,67.387,55.792,134.12,55.792,134.12
		s84.158-42.522,94.979-109.91c8.335-51.916-29.281-103.434-46.997-124.359l12.921-80.464l50.134,69.315
		c-6.399,26.659-16.796,89.597,14.02,132.201c39.998,55.302,134.289,55.386,134.289,55.386S1693.428,134.54,1653.429,79.238z"/>
</g>
</svg>
