<?xml version="1.0" encoding="utf-8"?>
<!-- Generator: Adobe Illustrator 15.0.2, SVG Export Plug-In . SVG Version: 6.00 Build 0)  -->
<!DOCTYPE svg PUBLIC "-//W3C//DTD SVG 1.0//EN" "http://www.w3.org/TR/2001/REC-SVG-20010904/DTD/svg10.dtd">
<svg version="1.0" id="Layer_1" xmlns="http://www.w3.org/2000/svg" xmlns:xlink="http://www.w3.org/1999/xlink" x="0px" y="0px"
	 width="1854px" height="782px" viewBox="0 0 1854 782" enable-background="new 0 0 1854 782" xml:space="preserve">
<path fill="#2D2713" d="M1356.059,557.084c-62.996-47.998-244.486-122.994-308.984-143.994c-64.496-20.998-22.498-3-44.998,7.5
	c-22.498,10.5-31.498,10.5-31.498,0c0-10.498-98.995-88.496-118.494-100.494c-19.499-12-4.5,14.998-26.999,4.5
	c-22.499-10.5-32.998-21-41.998-21s-35.998-9-47.997-17.998c-11.999-9-4.5-30-29.999-28.5
	c-24.46,1.439-102.739-46.805-118.342-57.356c0.158,2.574-0.056,3.934-0.634,3.852c-10.499-1.5-97.495,47.998-110.995,52.498
	s0-19.499,10.5-20.999s41.998-73.497,29.999-74.997s-23.999-17.999-26.999-35.998s-16.5-9-28.499-9s-22.499-1.5-34.498-31.499
	s-35.998-10.5-46.498-26.999s-17.999-1.5-28.499,9s-31.499,31.499-40.498,29.999s-71.997,38.998-86.996,53.997
	s-17.999-7.5-17.999-7.5c0.842-1.227,1.681-2.439,2.52-3.651c-4.363,3.756-8.175,6.933-11.037,9.159
	c-13.499,10.499-6,3-20.999,8.999s0,0-7.5,7.5s-19.499,10.499-29.999,17.999s-19.499,6-26.999,16.499S76.623,222.6,76.623,222.6
	c-38.998,56.998-59.997,551.972-59.997,551.972l1811.909-20.998C1828.535,753.574,1419.057,605.08,1356.059,557.084z"/>
<path fill="#FFFFFF" d="M700.109,262.092c0,0-16.5,20.998-22.499,26.998s-9,46.499-6,55.498s-6,122.993,15,127.493
	s43.498,0,55.497,16.499s14.999-16.5-12-23.999s-47.998-43.498-37.498-94.495S745.107,241.093,700.109,262.092z"/>
<path fill="#FFFFFF" d="M223.133,149.596c14.999-14.999,77.996-55.497,86.996-53.997S340.127,76.1,350.627,65.6
	s17.999-25.499,28.499-9s34.498-3,46.498,26.999s22.499,31.499,34.498,31.499s25.5-9,28.499,9s14.999,34.498,26.999,35.998
	s-19.499,73.497-29.999,74.997s-23.999,25.499-10.5,20.999s100.496-53.998,110.995-52.498c0.578,0.083,0.792-1.278,0.634-3.852
	c-0.663-0.448-1.224-0.835-1.651-1.141c-10.5-7.499-25.499-46.497-40.498-70.497c-15-23.999-12,4.5-26.999-1.499
	c-14.999-6-16.5-7.5-17.999-16.5s-22.499,4.5-34.499-6s-41.998-65.997-62.997-80.996s-9-19.499-19.499-19.499
	s-13.5,15-22.499,25.499s-19.499,1.5-31.499,10.499s-16.499,16.5-35.998,28.499s-17.999,7.5-32.999,22.499
	c-11.82,11.819-35.74,33.877-51.959,47.839c-0.839,1.211-1.678,2.424-2.52,3.651C205.134,142.096,208.134,164.595,223.133,149.596z"
	/>
</svg>
