<?xml version="1.0" encoding="utf-8"?>
<!-- Generator: Adobe Illustrator 15.0.2, SVG Export Plug-In . SVG Version: 6.00 Build 0)  -->
<!DOCTYPE svg PUBLIC "-//W3C//DTD SVG 1.0//EN" "http://www.w3.org/TR/2001/REC-SVG-20010904/DTD/svg10.dtd">
<svg version="1.0" id="Layer_1" xmlns="http://www.w3.org/2000/svg" xmlns:xlink="http://www.w3.org/1999/xlink" x="0px" y="0px"
	 width="324px" height="556.2px" viewBox="0 0 324 556.2" enable-background="new 0 0 324 556.2" xml:space="preserve">
<path fill="#68AFA5" d="M-754.361-43.404c3.779-4.896,37.499-10.499,40.498-3s64.497,16.499,68.997,26.999
	s61.497,40.499,89.995,31.499s133.494-31.499,142.493-20.999s73.496,34.499,86.996,20.999s43.498-76.496,53.997-58.497
	s74.997,50.997,80.996,53.997s85.496,13.499,92.996,17.999s5.999,23.999,31.498,3S1.601-8.905,10.601-7.405
	s47.998,62.997,47.998,62.997S87.097,38.907,90.097,33s7.5-34.405,20.999-20.906s28.499,26.998,44.998,29.998
	s29.998-10.5,37.498-4.5s28.498,15,28.498,15s85.496,82.496,125.994,77.996S454.578,66.09,481.577,81.09
	s220.489,101.994,233.988,95.995s35.999-11.999,67.497-14.999s178.492,44.998,238.488,46.498s121.493,25.498,121.493,25.498
	l1.5,386.981l-1957.402,4.509C-812.858,625.572-820.357,42.092-754.361-43.404z"/>
</svg>
