<?xml version="1.0" encoding="utf-8"?>
<!-- Generator: Adobe Illustrator 15.0.2, SVG Export Plug-In . SVG Version: 6.00 Build 0)  -->
<!DOCTYPE svg PUBLIC "-//W3C//DTD SVG 1.0//EN" "http://www.w3.org/TR/2001/REC-SVG-20010904/DTD/svg10.dtd">
<svg version="1.0" id="Layer_1" xmlns="http://www.w3.org/2000/svg" xmlns:xlink="http://www.w3.org/1999/xlink" x="0px" y="0px"
	 width="324px" height="556.2px" viewBox="0 0 324 556.2" enable-background="new 0 0 324 556.2" xml:space="preserve">
<path fill="#FFFFFF" d="M362.416,132.474c7.499,9,9,6.001,19.499-10.499c10.499-16.5,32.999-29.999,38.998-16.5
	s22.498,31.499,22.498,12s14.999-43.498,26.999-32.999s35.998,21,37.498,15s16.498-18,31.498-15s30-7.5,34.499-10.5
	s14.999,35.998,31.498,38.998c10.588,1.925,25.493,0.768,36.009,3.255c-18.261-11.309-1.684-24.186-9.858-29.636
	c-8.999-6-25.499-10.5-41.998-23.999s-11.999-16.5-26.999-15s-13.499-1.5-26.998-12s-7.5,3-9,13.5s-16.499,23.999-25.498,19.499
	s-7.5-10.5-38.998-23.999s-28.499-13.499-40.498-3s-13.5,7.5-19.499,10.5c0,0-12.636,19.129-23.783,38.831
	c-4.873,9.889-8.665,18.808-9.216,22.666c-0.333,2.332-2.151,4.07-4.771,5.366C361.757,125.523,360.771,130.5,362.416,132.474z"/>
<path fill="#9B978C" d="M817.545,86.593c-2.284,2.61-8.9,6.286-17.852,10.439c13.766,6.989,21.699,11.442,21.699,11.442
	s-41.998,7.5-52.497,15s-43.498,20.998-58.497,25.498s-28.499-7.499-29.999,1.5s23.999,22.499,4.5,25.499
	s-26.999-37.498-31.498-50.998c-0.568-1.705-1.498-3.121-2.718-4.304c-0.876-0.35-1.754-0.709-2.631-1.078
	c-2.609-1.099-4.801-2.223-6.641-3.362c-10.516-2.487-25.421-1.33-36.009-3.255c-16.499-3-26.999-41.998-31.498-38.998
	s-19.499,13.5-34.499,10.5s-29.998,9-31.498,15s-25.498-4.5-37.498-15s-26.999,13.5-26.999,32.999s-16.499,1.5-22.498-12
	s-28.499,0-38.998,16.5c-10.499,16.5-12,19.499-19.499,10.499c-1.645-1.974-0.659-6.95,1.88-13.516
	c-9.173,4.539-28.228,3.634-28.228,3.634s-14.129-0.564-30.589-0.654c25.477,4.428,40.437,7.536,40.437,7.536s3,23.999-5.999,29.999
	s-34.499,23.998-41.998,35.998s11.999,49.497,16.499,58.497s-77.996-35.998-82.496-43.498s-4.5-23.999-7.499-32.998
	s-31.499,3-37.498-1.5s-67.497-29.999-74.997-26.999S75.93,180.472,75.93,180.472s10.5,7.499,17.07,21
	s131.423,80.994,131.423,80.994s-56.997-11.999-79.496-16.499S66.931,210.47,44.432,208.97s-47.998-40.498-47.998-40.498
	s-29.998,14.999-43.498,7.5s-46.497-10.5-50.997,7.499s13.5,37.498,9,34.499s-32.999-26.999-40.498-38.998s-34.499-15-41.998-9
	s-22.499,9-32.999,4.5s-22.499-19.499-26.443-26.999s-66.552,15-66.552,15c1.326-1.244,2.69-2.463,4.075-3.667
	c-26.669,11.322-52.921,22.283-52.921,22.283c-70.497,59.997-158.992,349.482-158.992,349.482l1334.934-0.994
	C829.544,529.577,828.044,74.594,817.545,86.593z"/>
<path fill="#FFFFFF" d="M-231,147.473c3.945,7.5,15.944,22.499,26.443,26.999s25.499,1.5,32.999-4.5s34.499-2.999,41.998,9
	s35.999,35.999,40.498,38.998s-13.5-16.5-9-34.499s37.497-14.998,50.997-7.499s43.498-7.5,43.498-7.5s25.499,38.998,47.998,40.498
	s77.996,52.497,100.495,56.997s79.496,16.499,79.496,16.499S99.57,214.973,93,201.472s-17.07-21-17.07-21
	s28.498-28.499,35.998-31.499s68.998,22.499,74.997,26.999s34.499-7.499,37.498,1.5s2.999,25.498,7.499,32.998
	s86.996,52.498,82.496,43.498s-23.998-46.497-16.499-58.497s32.999-29.998,41.998-35.998s5.999-29.999,5.999-29.999
	s-14.96-3.108-40.437-7.536c-10.358-0.056-21.639,0.075-30.908,0.654c-23.999,1.5-31.498,25.498-50.997,37.498
	s-23.999,0-37.498-10.5s-49.498-38.998-68.997-35.998s-46.497,56.997-55.497,67.497s-26.998-9-47.997-23.999s-13.5-1.5-29.999-10.5
	s-16.499-10.499-43.498-7.499s-19.499,0-23.999-6s-9,1.5-28.499,9s-7.5,16.499-22.499,10.499s-10.499,4.5-28.498,3
	s-20.999-13.499-20.999-13.499s-46.595-11.999-53.998-7.5c-3.621,2.2-29.538,13.373-55.074,24.215
	c-1.384,1.204-2.749,2.423-4.075,3.667C-297.551,162.473-234.944,139.973-231,147.473z"/>
</svg>
